<svg width="27" height="27" viewBox="0 0 27 27" fill="none" xmlns="http://www.w3.org/2000/svg">
<g clip-path="url(#clip0_739_39)">
<path d="M13.5 3.88912C13.2762 3.88912 13.0616 3.80023 12.9034 3.642C12.7451 3.48376 12.6562 3.26915 12.6562 3.04537V0.84375C12.6562 0.619974 12.7451 0.405362 12.9034 0.247129C13.0616 0.0888948 13.2762 0 13.5 0C13.7238 0 13.9384 0.0888948 14.0966 0.247129C14.2549 0.405362 14.3438 0.619974 14.3438 0.84375V3.04537C14.3438 3.26915 14.2549 3.48376 14.0966 3.642C13.9384 3.80023 13.7238 3.88912 13.5 3.88912ZM20.8924 6.95137C20.7254 6.95145 20.5621 6.90197 20.4232 6.80919C20.2844 6.71641 20.1762 6.58451 20.1123 6.4302C20.0485 6.27588 20.0319 6.10609 20.0646 5.94233C20.0973 5.77856 20.1779 5.62819 20.2961 5.51025L21.8531 3.95325C21.9315 3.87488 22.0245 3.81271 22.1269 3.77029C22.2293 3.72787 22.3391 3.70604 22.4499 3.70604C22.5608 3.70604 22.6705 3.72787 22.7729 3.77029C22.8753 3.81271 22.9684 3.87488 23.0467 3.95325C23.1251 4.03162 23.1873 4.12467 23.2297 4.22707C23.2721 4.32947 23.294 4.43922 23.294 4.55006C23.294 4.6609 23.2721 4.77065 23.2297 4.87305C23.1873 4.97546 23.1251 5.0685 23.0467 5.14687L21.4897 6.70387C21.3313 6.86222 21.1164 6.95123 20.8924 6.95137ZM26.1562 14.3438H23.9546C23.7308 14.3438 23.5162 14.2549 23.358 14.0966C23.1998 13.9384 23.1109 13.7238 23.1109 13.5C23.1109 13.2762 23.1998 13.0616 23.358 12.9034C23.5162 12.7451 23.7308 12.6562 23.9546 12.6562H26.1562C26.38 12.6562 26.5946 12.7451 26.7529 12.9034C26.9111 13.0616 27 13.2762 27 13.5C27 13.7238 26.9111 13.9384 26.7529 14.0966C26.5946 14.2549 26.38 14.3438 26.1562 14.3438ZM22.4494 23.2931C22.3386 23.2934 22.2288 23.2717 22.1264 23.2292C22.0241 23.1867 21.9312 23.1243 21.8531 23.0456L20.2961 21.4886C20.2177 21.4102 20.1556 21.3172 20.1132 21.2148C20.0707 21.1124 20.0489 21.0026 20.0489 20.8918C20.0489 20.781 20.0707 20.6712 20.1132 20.5688C20.1556 20.4664 20.2177 20.3734 20.2961 20.295C20.3745 20.2166 20.4675 20.1545 20.5699 20.112C20.6723 20.0696 20.7821 20.0478 20.8929 20.0478C21.0038 20.0478 21.1135 20.0696 21.2159 20.112C21.3183 20.1545 21.4114 20.2166 21.4897 20.295L23.0467 21.852C23.1651 21.97 23.2457 22.1205 23.2783 22.2844C23.311 22.4482 23.2943 22.6181 23.2303 22.7725C23.1663 22.9268 23.058 23.0587 22.9189 23.1514C22.7799 23.2441 22.6165 23.2934 22.4494 23.2931ZM4.55062 23.2931C4.38362 23.2932 4.22036 23.2437 4.0815 23.1509C3.94264 23.0582 3.83443 22.9263 3.77059 22.7719C3.70674 22.6176 3.69012 22.4478 3.72284 22.2841C3.75556 22.1203 3.83614 21.9699 3.95437 21.852L5.51137 20.295C5.58975 20.2166 5.68279 20.1545 5.78519 20.112C5.8876 20.0696 5.99735 20.0478 6.10819 20.0478C6.21903 20.0478 6.32878 20.0696 6.43118 20.112C6.53358 20.1545 6.62663 20.2166 6.705 20.295C6.78337 20.3734 6.84554 20.4664 6.88796 20.5688C6.93038 20.6712 6.95221 20.781 6.95221 20.8918C6.95221 21.0026 6.93038 21.1124 6.88796 21.2148C6.84554 21.3172 6.78337 21.4102 6.705 21.4886L5.148 23.0456C5.06967 23.1242 4.97656 23.1866 4.87403 23.229C4.77151 23.2715 4.6616 23.2933 4.55062 23.2931ZM3.04537 14.3438H0.84375C0.619974 14.3438 0.405362 14.2549 0.247129 14.0966C0.0888948 13.9384 0 13.7238 0 13.5C0 13.2762 0.0888948 13.0616 0.247129 12.9034C0.405362 12.7451 0.619974 12.6562 0.84375 12.6562H3.04537C3.26915 12.6562 3.48376 12.7451 3.642 12.9034C3.80023 13.0616 3.88912 13.2762 3.88912 13.5C3.88912 13.7238 3.80023 13.9384 3.642 14.0966C3.48376 14.2549 3.26915 14.3438 3.04537 14.3438ZM6.10762 6.95137C5.9968 6.95165 5.88703 6.92991 5.78468 6.88742C5.68232 6.84494 5.58943 6.78255 5.51137 6.70387L3.95437 5.14687C3.876 5.0685 3.81383 4.97546 3.77141 4.87305C3.729 4.77065 3.70717 4.6609 3.70717 4.55006C3.70717 4.43922 3.729 4.32947 3.77141 4.22707C3.81383 4.12467 3.876 4.03162 3.95437 3.95325C4.03275 3.87488 4.12579 3.81271 4.22819 3.77029C4.3306 3.72787 4.44035 3.70604 4.55119 3.70604C4.66203 3.70604 4.77178 3.72787 4.87418 3.77029C4.97658 3.81271 5.06963 3.87488 5.148 3.95325L6.705 5.51025C6.82331 5.62826 6.90391 5.77873 6.93659 5.9426C6.96927 6.10647 6.95256 6.27636 6.88857 6.43072C6.82459 6.58508 6.71621 6.71697 6.57718 6.80966C6.43815 6.90235 6.27472 6.95167 6.10762 6.95137ZM16.875 23.625V25.0312C16.875 26.1112 15.9862 27 14.9062 27H12.0937C11.1487 27 10.125 26.28 10.125 24.705V23.625H16.875ZM18.4612 7.38C17.5414 6.63684 16.4665 6.10954 15.3159 5.83696C14.1652 5.56438 12.968 5.55345 11.8125 5.805C8.83125 6.42375 6.4125 8.85375 5.79375 11.835C5.16375 14.895 6.31125 17.9325 8.76375 19.7887C9.4275 20.2837 9.88875 21.0487 10.0462 21.9375V21.9487C10.0687 21.9375 10.1025 21.9375 10.125 21.9375H16.875C16.8975 21.9375 16.9087 21.9375 16.9312 21.9487V21.9375C17.0887 21.0825 17.595 20.295 18.3713 19.6875C19.3083 18.9514 20.0657 18.0118 20.586 16.9398C21.1064 15.8679 21.3762 14.6916 21.375 13.5C21.375 11.115 20.3175 8.8875 18.4612 7.38ZM17.7188 14.0625C17.2575 14.0625 16.875 13.68 16.875 13.2187C16.875 11.5087 15.4912 10.125 13.7812 10.125C13.32 10.125 12.9375 9.7425 12.9375 9.28125C12.9375 8.82 13.32 8.4375 13.7812 8.4375C15.0484 8.44047 16.2628 8.94516 17.1588 9.84118C18.0548 10.7372 18.5595 11.9516 18.5625 13.2187C18.5625 13.68 18.18 14.0625 17.7188 14.0625Z" fill="#6FC875"/>
<path d="M10.0469 21.9375H10.1256C10.1031 21.9375 10.0694 21.9375 10.0469 21.9488V21.9375ZM16.9319 21.9375V21.9488C16.9094 21.9375 16.8981 21.9375 16.8756 21.9375H16.9319Z" fill="black"/>
</g>
<defs>
<clipPath id="clip0_739_39">
<rect width="27" height="27" fill="white"/>
</clipPath>
</defs>
</svg>
