<svg width="299" height="299" viewBox="0 0 299 299" fill="none" xmlns="http://www.w3.org/2000/svg">
<path d="M291.7 17.8214H287.387V16.3224C287.387 12.2975 284.112 9.02255 280.087 9.02255H257.364C253.338 9.02255 250.064 12.2975 250.064 16.3224V79.0978C250.064 81.2766 251.029 83.23 252.548 84.5691V225.801C252.548 225.84 252.553 225.878 252.553 225.916C252.554 225.955 252.55 225.995 252.552 226.034C252.981 238.305 255.57 248.764 259.653 254.732C260.727 256.298 262.463 257.257 264.346 257.358V263.483C264.346 265.902 266.306 267.863 268.726 267.863C271.145 267.863 273.106 265.902 273.106 263.483V257.358C274.987 257.257 276.724 256.298 277.798 254.731C281.881 248.766 284.469 238.306 284.899 226.032C284.9 225.994 284.897 225.955 284.897 225.917C284.899 225.879 284.903 225.84 284.903 225.801V84.5691C286.422 83.23 287.387 81.2766 287.387 79.0978V60.151C287.387 57.7315 285.426 55.7711 283.007 55.7711C280.588 55.7711 278.627 57.7315 278.627 60.151V77.6372H258.824V17.7817H278.627V42.6314C278.627 45.0509 280.588 47.0113 283.007 47.0113C285.426 47.0113 287.387 45.0509 287.387 42.6314V26.5812H290.24V85.0462C290.24 87.4657 292.201 89.4261 294.62 89.4261C297.04 89.4261 299 87.4657 299 85.0462V25.1212C299 21.0953 295.726 17.8214 291.7 17.8214ZM271.289 248.618H266.164C263.74 244.28 262.008 236.888 261.447 228.497H276.005C275.443 236.889 273.712 244.281 271.289 248.618ZM261.307 86.397H276.143V219.736H261.307V86.397Z" fill="#585858"/>
<path d="M235.086 8.69437H12.3711C5.5496 8.69437 0 14.1926 0 20.951V253.389C0 260.148 5.5496 265.646 12.3711 265.646H17.4448V282.4C17.4448 285.266 19.0385 287.868 21.6039 289.192C22.7006 289.758 23.9352 290.056 25.1732 290.056C26.7249 290.056 28.2234 289.601 29.5017 288.743L39.6449 281.948L51.2061 289.136C52.4377 289.902 53.8585 290.306 55.3144 290.306C56.5986 290.306 57.874 289.985 58.997 289.38C61.4918 288.04 63.0423 285.461 63.0423 282.65V265.646H231.326C235.944 265.646 239.701 261.914 239.701 257.327V145.807C241.339 144.467 242.387 142.433 242.387 140.156V15.9942C242.386 11.9688 239.111 8.69437 235.086 8.69437ZM54.2819 280.735L41.8688 273.017C41.1598 272.576 40.358 272.356 39.5562 272.356C38.7053 272.356 37.855 272.604 37.1186 273.097L26.204 280.409V265.647H54.2819V280.735ZM199.745 256.887H39.1795V217.243C39.1795 214.823 37.2191 212.863 34.7996 212.863C32.3802 212.863 30.4197 214.823 30.4197 217.243V256.887H12.3711C10.3803 256.887 8.75977 255.317 8.75977 253.39V20.951C8.75977 19.0227 10.3797 17.4541 12.3711 17.4541H30.4197V200.307C30.4197 202.727 32.3802 204.687 34.7996 204.687C37.2191 204.687 39.1795 202.727 39.1795 200.307V17.4541H199.745V256.887ZM230.941 256.887H224.547V172.276C224.547 169.857 222.587 167.896 220.167 167.896C217.748 167.896 215.787 169.857 215.787 172.276V256.887H208.505V147.457H215.787V153.588C215.787 156.008 217.748 157.968 220.167 157.968C222.587 157.968 224.547 156.008 224.547 153.588V147.457H230.941V256.887ZM233.626 138.697H208.505V106.578H233.626V138.697ZM233.626 97.818H208.505V63.4674H233.626V97.818ZM233.626 54.7077H208.505V17.4541H233.626V54.7077Z" fill="#585858"/>
<path d="M154.593 71.1159C148.483 71.1159 142.709 73.2632 138.147 77.1992C133.588 73.2638 127.814 71.1159 121.703 71.1159C115.593 71.1159 109.818 73.2638 105.257 77.1992C100.698 73.2644 94.9232 71.1159 88.8123 71.1159C75.004 71.1159 63.7711 82.2168 63.7711 95.8616C63.7711 108.657 73.8279 119.352 86.5406 120.499V157.793C86.5406 160.212 88.5011 162.172 90.9205 162.172H152.484C154.904 162.172 156.864 160.212 156.864 157.793V120.499C169.576 119.352 179.634 108.657 179.634 95.8616C179.634 82.2174 168.4 71.1159 154.593 71.1159ZM154.895 111.84C151.15 111.903 148.104 114.987 148.104 118.714V153.414H136.061V133.02C136.061 130.601 134.101 128.64 131.681 128.64C129.262 128.64 127.302 130.601 127.302 133.02V153.414H116.102V133.02C116.102 130.601 114.141 128.64 111.722 128.64C109.303 128.64 107.342 130.601 107.342 133.02V153.414H95.2998V118.714C95.2998 114.987 92.2538 111.903 88.5122 111.839C79.6998 111.684 72.5303 104.517 72.5303 95.8622C72.5303 87.0475 79.8342 79.8762 88.8118 79.8762C93.1887 79.8762 97.297 81.5593 100.376 84.6106C101.679 85.9064 103.413 86.6195 105.257 86.6195C107.099 86.6195 108.832 85.9065 110.134 84.6141C113.216 81.5593 117.325 79.8762 121.703 79.8762C126.08 79.8762 130.188 81.5593 133.266 84.6106C134.569 85.9064 136.303 86.6195 138.147 86.6195C139.992 86.6195 141.725 85.9059 143.025 84.6141C146.107 81.5593 150.215 79.8762 154.593 79.8762C163.571 79.8762 170.874 87.0475 170.874 95.8622C170.874 104.517 163.704 111.685 154.895 111.84Z" fill="#585858"/>
<path d="M153.502 190.65H89.9026C87.4832 190.65 85.5228 192.611 85.5228 195.03C85.5228 197.45 87.4832 199.41 89.9026 199.41H153.501C155.921 199.41 157.882 197.449 157.882 195.03C157.882 192.611 155.921 190.65 153.502 190.65Z" fill="#585858"/>
<path d="M143.011 210.528H100.393C97.9733 210.528 96.0129 212.489 96.0129 214.908C96.0129 217.327 97.9733 219.288 100.393 219.288H143.011C145.431 219.288 147.391 217.327 147.391 214.908C147.391 212.489 145.431 210.528 143.011 210.528Z" fill="#585858"/>
<path d="M268.726 137.62C266.306 137.62 264.346 139.58 264.346 142V183.242C264.346 185.661 266.306 187.622 268.726 187.622C271.145 187.622 273.106 185.661 273.106 183.242V142C273.106 139.58 271.145 137.62 268.726 137.62Z" fill="#585858"/>
<path d="M268.726 117.2C266.306 117.2 264.346 119.161 264.346 121.58V126.007C264.346 128.427 266.306 130.387 268.726 130.387C271.145 130.387 273.106 128.427 273.106 126.007V121.58C273.106 119.161 271.145 117.2 268.726 117.2Z" fill="#585858"/>
</svg>
