<svg width="189" height="189" viewBox="0 0 189 189" fill="none" xmlns="http://www.w3.org/2000/svg">
<circle cx="94.5" cy="94.5" r="94.5" fill="#B9B9B9"/>
<g clip-path="url(#clip0_165_16)">
<path d="M104.906 132.876C112.806 129.639 118.964 122.998 121.542 114.785C121.628 114.787 121.715 114.79 121.801 114.79C126.547 114.79 130.409 110.929 130.409 106.183C130.409 101.795 127.108 98.166 122.859 97.6424V89.0955C124.388 88.5266 125.481 87.0571 125.481 85.333V73.8557C131.218 70.0277 134.629 63.4857 134.439 56.5511C134.363 53.7616 133.713 51.0628 132.507 48.53C132.104 47.6827 131.09 47.3227 130.243 47.7257C129.396 48.129 129.035 49.1429 129.439 49.9902C130.439 52.0927 130.979 54.3314 131.042 56.644C131.207 62.6798 128.091 68.358 122.909 71.463C122.397 71.77 122.083 72.3235 122.083 72.9207V85.333C122.083 85.6744 121.805 85.952 121.464 85.952H101.501C100.562 85.952 99.8018 86.7125 99.8018 87.6512C99.8018 88.5898 100.562 89.3504 101.501 89.3504H107.554C109.272 96.9482 113.423 101.604 119.189 102.456C119.367 103.677 119.461 104.918 119.461 106.158C119.461 120.197 108.039 131.619 94.0002 131.619C79.961 131.619 68.539 120.198 68.539 106.158C68.539 104.919 68.6298 103.679 68.8072 102.458C74.5799 101.612 78.7355 96.9537 80.4551 89.3506H94.0265C94.9651 89.3506 95.7257 88.5901 95.7257 87.6514C95.7257 86.7128 94.9651 85.9522 94.0265 85.9522H66.536C66.1945 85.9522 65.917 85.6744 65.917 85.3332V72.9209C65.917 72.3237 65.6034 71.7705 65.0909 71.4632C59.909 68.3582 56.7926 62.6798 56.958 56.6442C57.0758 52.3501 58.8396 48.3037 61.9247 45.2508C65.0098 42.1978 69.0748 40.4755 73.3709 40.4012C76.7732 40.3416 80.0684 41.302 82.8945 43.177C83.4641 43.5545 84.2038 43.5545 84.7734 43.177C87.5128 41.3591 90.7035 40.3985 94 40.3985C97.2965 40.3985 100.487 41.3591 103.227 43.177C103.796 43.5545 104.536 43.5545 105.106 43.177C107.932 41.302 111.234 40.3357 114.629 40.4012C118.557 40.4694 122.362 41.9511 125.344 44.5738C126.048 45.1932 127.122 45.125 127.742 44.42C128.362 43.7153 128.293 42.6417 127.588 42.0218C124.002 38.8676 119.421 37.0852 114.688 37.0032C110.965 36.9395 107.349 37.8884 104.166 39.7582C101.088 37.9504 97.5957 37 94 37C90.4042 37 86.9124 37.9504 83.8338 39.7582C80.6504 37.8881 77.029 36.9402 73.312 37.0032C68.1371 37.0929 63.244 39.1641 59.5342 42.8351C55.824 46.5068 53.7025 51.3779 53.5609 56.5513C53.3708 63.4857 56.7817 70.028 62.5185 73.856V85.3332C62.5185 87.0605 63.6165 88.5323 65.1492 89.0989V97.6415C60.8966 98.161 57.5912 101.792 57.5912 106.183C57.5912 110.929 61.4525 114.791 66.1986 114.791C66.2849 114.791 66.3715 114.788 66.4578 114.785C69.0356 122.998 75.1938 129.639 83.0943 132.876V135.395C83.0943 135.913 83.1333 136.423 83.2035 136.923H82.0318C79.4845 136.923 77.2896 138.476 76.4404 140.88C75.5926 143.278 76.3226 145.861 78.3005 147.458C78.996 148.019 79.7521 148.563 80.548 149.071C80.8316 149.253 81.1484 149.339 81.4619 149.339C82.0222 149.339 82.5707 149.062 82.895 148.556C83.4004 147.765 83.1696 146.714 82.3791 146.209C81.6881 145.767 81.0342 145.298 80.4356 144.814C79.4138 143.989 79.3572 142.826 79.6447 142.012C79.9333 141.195 80.7122 140.322 82.0318 140.322H84.2754C86.0782 143.866 89.7589 146.301 94 146.301C95.5435 146.301 97.0665 145.969 98.4617 145.345C98.753 146.618 99.3768 147.765 100.238 148.69C98.2285 149.296 96.1403 149.602 94 149.602C92.2192 149.602 90.4373 149.381 88.704 148.944C87.7948 148.714 86.8705 149.266 86.6412 150.176C86.4119 151.086 86.9636 152.01 87.8735 152.239C89.8783 152.744 91.9394 153 94 153C97.5169 153 100.913 152.283 104.101 150.873C104.582 150.973 105.079 151.025 105.589 151.025C107.941 151.025 110.037 149.907 111.375 148.176L122.749 152.215C123.18 152.369 123.629 152.444 124.075 152.444C124.884 152.444 125.686 152.196 126.363 151.718C127.414 150.976 128.041 149.766 128.041 148.479V142.085C128.041 139.899 126.263 138.12 124.076 138.12H110.293C109.021 137.048 107.379 136.4 105.589 136.4C105.341 136.4 105.097 136.412 104.856 136.437C104.888 136.092 104.906 135.744 104.906 135.395V132.876H104.906ZM127.01 106.183C127.01 108.856 124.985 111.065 122.389 111.358C122.697 109.671 122.859 107.933 122.859 106.158C122.859 104.727 122.752 103.294 122.543 101.885C122.708 101.653 122.818 101.378 122.85 101.08C125.221 101.566 127.01 103.669 127.01 106.183ZM111.05 89.3506H119.461V99.0573C114.345 98.164 112.063 93.2593 111.05 89.3506ZM68.5476 99.0573V89.3506H76.9592C75.946 93.2595 73.6636 98.164 68.5476 99.0573ZM60.9897 106.183C60.9897 103.666 62.7832 101.561 65.1587 101.078C65.1895 101.373 65.2964 101.645 65.4584 101.875C65.2484 103.288 65.1405 104.724 65.1405 106.158C65.1405 107.933 65.3025 109.67 65.6109 111.358C63.0145 111.065 60.9897 108.856 60.9897 106.183ZM124.643 142.084V148.479C124.643 148.734 124.493 148.878 124.403 148.942C124.313 149.005 124.127 149.098 123.887 149.012L112.774 145.066C112.857 144.627 112.902 144.175 112.902 143.712C112.902 142.948 112.783 142.211 112.565 141.518H124.077C124.389 141.518 124.643 141.772 124.643 142.084ZM109.503 143.712C109.503 145.871 107.747 147.627 105.589 147.627C103.431 147.627 101.675 145.871 101.675 143.712C101.675 141.554 103.431 139.798 105.589 139.798C107.747 139.798 109.503 141.554 109.503 143.712ZM98.7055 141.244C97.3597 142.329 95.7325 142.902 94 142.902C89.8604 142.902 86.4928 139.534 86.4928 135.394V134.025C88.8876 134.671 91.4038 135.018 94 135.018C96.5962 135.018 99.1124 134.671 101.507 134.025V135.394C101.507 136.287 101.352 137.159 101.047 137.987C99.9908 138.827 99.1706 139.951 98.7055 141.244Z" fill="white"/>
<path d="M95.5155 113.999C95.1802 114.519 94.6138 114.829 94.0003 114.829C93.3867 114.829 92.8203 114.519 92.485 113.999C91.9761 113.211 90.924 112.984 90.1358 113.493C89.3475 114.003 89.121 115.054 89.6301 115.843C90.5943 117.336 92.2281 118.227 94.0005 118.227C95.7729 118.227 97.4066 117.336 98.3709 115.843C98.88 115.054 98.6534 114.003 97.8652 113.493C97.0763 112.984 96.0246 113.211 95.5155 113.999Z" fill="white"/>
<path d="M106.658 108.605V107.022C106.658 106.083 105.898 105.323 104.959 105.323C104.021 105.323 103.26 106.083 103.26 107.022V108.605C103.26 109.544 104.021 110.305 104.959 110.305C105.898 110.305 106.658 109.544 106.658 108.605Z" fill="white"/>
<path d="M81.3414 107.022V108.605C81.3414 109.544 82.102 110.305 83.0407 110.305C83.9793 110.305 84.7399 109.544 84.7399 108.605V107.022C84.7399 106.083 83.9793 105.323 83.0407 105.323C82.102 105.323 81.3414 106.083 81.3414 107.022Z" fill="white"/>
</g>
<defs>
<clipPath id="clip0_165_16">
<rect width="116" height="116" fill="white" transform="translate(36 37)"/>
</clipPath>
</defs>
</svg>
